<svg width="20" height="20" viewBox="0 0 20 20" fill="none" xmlns="http://www.w3.org/2000/svg">
<path d="M10 13.5097C10.1629 13.5097 10.302 13.4521 10.4171 13.337C10.5322 13.2218 10.5898 13.0828 10.5898 12.9199C10.5898 12.757 10.5322 12.6179 10.4171 12.5028C10.302 12.3878 10.1629 12.3303 10 12.3303C9.8371 12.3303 9.69808 12.3878 9.58294 12.5028C9.4678 12.6179 9.41023 12.757 9.41023 12.9199C9.41023 13.0828 9.4678 13.2218 9.58294 13.337C9.69808 13.4521 9.8371 13.5097 10 13.5097ZM9.45835 11.1924H10.5417V6.16029H9.45835V11.1924ZM7.28044 16.5834L3.41669 12.7026V7.2805L7.27669 3.41675H12.7196L16.5834 7.27675V12.7197L12.7025 16.5834H7.28044ZM7.72919 15.5001H12.2709L15.5 12.2709V7.72925L12.25 4.50008H7.72919L4.50002 7.72925V12.2709L7.72919 15.5001Z" fill="#FF565F"/>
</svg>
