<svg width="20" height="20" viewBox="0 0 20 20" fill="none" xmlns="http://www.w3.org/2000/svg">
<path d="M4.75646 17.5833C4.38132 17.5833 4.06424 17.4514 3.80521 17.1875C3.54619 16.9236 3.41667 16.609 3.41667 16.2435V5.75645C3.41667 5.39103 3.54619 5.07638 3.80521 4.81249C4.06424 4.5486 4.38132 4.41666 4.75646 4.41666H6.57688V2.32062H7.6923V4.41666H12.3398V2.32062H13.4231V4.41666H15.2435C15.6187 4.41666 15.9358 4.5486 16.1948 4.81249C16.4538 5.07638 16.5833 5.39103 16.5833 5.75645V16.2435C16.5833 16.609 16.4538 16.9236 16.1948 17.1875C15.9358 17.4514 15.6187 17.5833 15.2435 17.5833H4.75646ZM4.75646 16.5H15.2435C15.3077 16.5 15.3665 16.4733 15.4198 16.4198C15.4733 16.3665 15.5 16.3077 15.5 16.2435V9.25645H4.50001V16.2435C4.50001 16.3077 4.52674 16.3665 4.58021 16.4198C4.63355 16.4733 4.6923 16.5 4.75646 16.5ZM4.50001 8.17312H15.5V5.75645C15.5 5.69228 15.4733 5.63353 15.4198 5.5802C15.3665 5.52673 15.3077 5.49999 15.2435 5.49999H4.75646C4.6923 5.49999 4.63355 5.52673 4.58021 5.5802C4.52674 5.63353 4.50001 5.69228 4.50001 5.75645V8.17312Z" fill="white"/>
</svg>
