<svg width="20" height="20" viewBox="0 0 20 20" fill="none" xmlns="http://www.w3.org/2000/svg">
<path d="M7.06251 13.7114L10 10.7739L12.9375 13.7114L13.7115 12.9375L10.774 9.99996L13.7115 7.06246L12.9375 6.2885L10 9.226L7.06251 6.2885L6.28855 7.06246L9.22605 9.99996L6.28855 12.9375L7.06251 13.7114ZM10.0015 17.5833C8.96202 17.5833 7.98139 17.3859 7.05959 16.9912C6.13778 16.5965 5.33098 16.0534 4.63917 15.3618C3.94737 14.6703 3.40396 13.8638 3.00896 12.9425C2.6141 12.0211 2.41667 11.0407 2.41667 10.0014C2.41667 8.94808 2.61403 7.96399 3.00876 7.04913C3.40348 6.13426 3.9466 5.33093 4.63813 4.63913C5.32966 3.94732 6.13612 3.40392 7.05751 3.00892C7.97889 2.61406 8.95924 2.41663 9.99855 2.41663C11.0519 2.41663 12.036 2.61399 12.9508 3.00871C13.8657 3.40343 14.669 3.94656 15.3608 4.63808C16.0526 5.32961 16.596 6.1326 16.991 7.04704C17.3859 7.96149 17.5833 8.94531 17.5833 9.9985C17.5833 11.0379 17.386 12.0186 16.9913 12.9404C16.5965 13.8622 16.0534 14.669 15.3619 15.3608C14.6704 16.0526 13.8674 16.596 12.9529 16.991C12.0385 17.3859 11.0547 17.5833 10.0015 17.5833Z" fill="#8D8D8D"/>
</svg>
