<svg width="20" height="20" viewBox="0 0 20 20" fill="none" xmlns="http://www.w3.org/2000/svg">
<path d="M7.06699 14.3999C7.6448 14.3999 8.21696 14.2862 8.7508 14.0651C9.28463 13.8439 9.76969 13.5199 10.1783 13.1113C10.5868 12.7027 10.9109 12.2176 11.1321 11.6838C11.3532 11.15 11.467 10.5778 11.467 10C11.467 9.42219 11.3532 8.85003 11.1321 8.31621C10.9109 7.78237 10.5868 7.29732 10.1783 6.88873C9.76969 6.48016 9.28463 6.15606 8.7508 5.93494C8.21696 5.71381 7.6448 5.60001 7.06699 5.60001C5.90003 5.60001 4.78088 6.06358 3.95572 6.88873C3.13055 7.7139 2.66699 8.83306 2.66699 10C2.66699 11.167 3.13055 12.2861 3.95572 13.1113C4.78088 13.9364 5.90003 14.3999 7.06699 14.3999Z" fill="#EB001B"/>
<path d="M12.9337 14.3999C13.5115 14.3999 14.0836 14.2862 14.6175 14.0651C15.1513 13.8439 15.6364 13.5199 16.045 13.1113C16.4536 12.7027 16.7776 12.2176 16.9987 11.6838C17.22 11.15 17.3337 10.5778 17.3337 10C17.3337 9.42219 17.22 8.85003 16.9987 8.31621C16.7776 7.78237 16.4536 7.29732 16.045 6.88873C15.6364 6.48016 15.1513 6.15606 14.6175 5.93494C14.0836 5.71381 13.5115 5.60001 12.9337 5.60001C11.7667 5.60001 10.6476 6.06358 9.82242 6.88873C8.99727 7.7139 8.53369 8.83306 8.53369 10C8.53369 11.167 8.99727 12.2861 9.82242 13.1113C10.6476 13.9364 11.7667 14.3999 12.9337 14.3999Z" fill="#F79E1B"/>
<path d="M10.0004 13.28C10.4625 12.8678 10.8321 12.3624 11.0849 11.797C11.3377 11.2317 11.4679 10.6193 11.467 9.99998C11.4679 9.3807 11.3377 8.76825 11.0849 8.20293C10.8321 7.6376 10.4625 7.1322 10.0004 6.71997C9.53843 7.13237 9.16895 7.63779 8.91617 8.20308C8.66339 8.76837 8.53305 9.38075 8.5337 9.99998C8.5328 10.6193 8.66303 11.2317 8.91582 11.797C9.1686 12.3624 9.53823 12.8678 10.0004 13.28Z" fill="#FF5F00"/>
</svg>
