<svg width="20" height="20" viewBox="0 0 20 20" fill="none" xmlns="http://www.w3.org/2000/svg">
<path d="M4.50001 15.5H5.42625L13.6233 7.30288L12.6971 6.37663L4.50001 14.5737V15.5ZM3.41667 16.5833V14.117L13.7838 3.73392C13.8958 3.61947 14.0165 3.53801 14.1456 3.48954C14.2748 3.44093 14.4101 3.41663 14.5517 3.41663C14.6933 3.41663 14.8285 3.43933 14.9573 3.48475C15.0862 3.53017 15.211 3.61058 15.3317 3.726L16.266 4.65225C16.3815 4.77295 16.4632 4.89795 16.5113 5.02725C16.5593 5.15656 16.5833 5.28968 16.5833 5.42663C16.5833 5.5726 16.5581 5.7119 16.5075 5.84454C16.4568 5.97718 16.3763 6.09843 16.266 6.20829L5.88292 16.5833H3.41667ZM13.1521 6.84788L12.6971 6.37663L13.6233 7.30288L13.1521 6.84788Z" fill="white"/>
</svg>
