<svg width="20" height="20" viewBox="0 0 20 20" fill="none" xmlns="http://www.w3.org/2000/svg">
<path d="M15.8317 17.3717L2.62833 4.16832L3.40228 3.40228L16.5977 16.5977L15.8317 17.3717ZM10.01 16.5833C8.11985 16.5833 6.5484 16.3301 5.29562 15.8235C4.04298 15.3171 3.41666 14.6826 3.41666 13.9198V5.99999C3.41666 5.73388 3.51708 5.47555 3.71791 5.22499C3.91874 4.97457 4.19652 4.74999 4.55124 4.55124L8.44229 8.44228C7.64104 8.36006 6.90041 8.22437 6.22041 8.0352C5.54027 7.84603 4.9668 7.61207 4.49999 7.33332V10.0608C5.08444 10.5053 5.84958 10.8509 6.79541 11.0977C7.74138 11.3445 8.80958 11.4679 9.99999 11.4679C10.2439 11.4679 10.4817 11.4644 10.7133 11.4575C10.945 11.4505 11.1767 11.4332 11.4083 11.4054L12.3573 12.3573C11.9802 12.4192 11.5954 12.4671 11.2029 12.5008C10.8103 12.5344 10.4093 12.5512 9.99999 12.5512C8.87902 12.5512 7.8386 12.4452 6.87874 12.2331C5.91902 12.021 5.1261 11.7344 4.49999 11.3733V14C4.71902 14.4092 5.37097 14.7614 6.45583 15.0569C7.54083 15.3523 8.72222 15.5 9.99999 15.5C10.9305 15.5 11.8101 15.4207 12.6385 15.2621C13.4671 15.1033 14.1346 14.9033 14.641 14.6619L15.4487 15.4487C14.8592 15.7979 14.0946 16.0743 13.1552 16.2779C12.2159 16.4815 11.1675 16.5833 10.01 16.5833ZM16.4758 14.3508L15.5 13.375V11.3733C15.3099 11.4833 15.0955 11.5874 14.8571 11.6856C14.6185 11.7837 14.3637 11.8778 14.0929 11.9679L13.2179 11.0929C13.673 10.9818 14.0921 10.8389 14.4752 10.6642C14.8581 10.4896 15.1997 10.2885 15.5 10.0608V7.33332C14.9178 7.67096 14.2001 7.93673 13.3469 8.13062C12.4938 8.32451 11.5844 8.44548 10.6185 8.49353L9.56895 7.44395C9.77617 7.46312 10.1581 7.45645 10.7148 7.42395C11.2713 7.39131 11.861 7.32131 12.484 7.21395C13.1069 7.10659 13.7054 6.95569 14.2796 6.76124C14.8539 6.5668 15.2527 6.3077 15.476 5.98395C15.1885 5.58978 14.4965 5.24388 13.3998 4.94624C12.3031 4.64874 11.1699 4.49999 9.99999 4.49999C9.4861 4.49999 8.97222 4.53124 8.45833 4.59374C7.94444 4.65624 7.45138 4.74305 6.97916 4.85416L6.07062 3.94562C6.63034 3.78312 7.23847 3.65437 7.89499 3.55937C8.55152 3.46423 9.25319 3.41666 9.99999 3.41666C11.8193 3.41666 13.3713 3.66756 14.656 4.16937C15.9409 4.67103 16.5833 5.28124 16.5833 5.99999V13.9198C16.5833 13.9883 16.5761 14.0588 16.5617 14.1314C16.5472 14.2041 16.5186 14.2772 16.4758 14.3508Z" fill="white"/>
</svg>
