<svg width="20" height="20" viewBox="0 0 20 20" fill="none" xmlns="http://www.w3.org/2000/svg">
<path d="M7.75646 17.5H12.2435C12.3184 17.5 12.3799 17.476 12.4279 17.4279C12.476 17.3799 12.5 17.3184 12.5 17.2435V12.54C12.1794 12.8651 11.8047 13.1204 11.3758 13.3056C10.9468 13.4908 10.4882 13.5833 10 13.5833C9.51181 13.5833 9.0532 13.4908 8.62417 13.3056C8.19528 13.1204 7.82056 12.8651 7.50001 12.54V17.2435C7.50001 17.3184 7.52403 17.3799 7.57209 17.4279C7.62014 17.476 7.6816 17.5 7.75646 17.5ZM10 12.5C10.6944 12.5 11.2847 12.2569 11.7708 11.7708C12.2569 11.2847 12.5 10.6944 12.5 10C12.5 9.30556 12.2569 8.71528 11.7708 8.22917C11.2847 7.74306 10.6944 7.5 10 7.5C9.30556 7.5 8.71528 7.74306 8.22917 8.22917C7.74306 8.71528 7.50001 9.30556 7.50001 10C7.50001 10.6944 7.74306 11.2847 8.22917 11.7708C8.71528 12.2569 9.30556 12.5 10 12.5ZM7.50001 7.46C7.82056 7.13486 8.19528 6.87965 8.62417 6.69438C9.0532 6.50924 9.51181 6.41667 10 6.41667C10.4882 6.41667 10.9468 6.50924 11.3758 6.69438C11.8047 6.87965 12.1794 7.13486 12.5 7.46V2.75646C12.5 2.6816 12.476 2.62014 12.4279 2.57209C12.3799 2.52403 12.3184 2.5 12.2435 2.5H7.75646C7.6816 2.5 7.62014 2.52403 7.57209 2.57209C7.52403 2.62014 7.50001 2.6816 7.50001 2.75646V7.46ZM7.75646 18.5833C7.33549 18.5833 7.00695 18.4653 6.77084 18.2292C6.53473 17.9931 6.41667 17.6645 6.41667 17.2435V2.75646C6.41667 2.33549 6.53473 2.00695 6.77084 1.77083C7.00695 1.53472 7.33549 1.41667 7.75646 1.41667H12.2435C12.6645 1.41667 12.9931 1.53472 13.2292 1.77083C13.4653 2.00695 13.5833 2.33549 13.5833 2.75646V17.2435C13.5833 17.6645 13.4653 17.9931 13.2292 18.2292C12.9931 18.4653 12.6645 18.5833 12.2435 18.5833H7.75646ZM10 11.1458C9.68167 11.1458 9.41112 11.0344 9.18834 10.8117C8.96556 10.5889 8.85417 10.3183 8.85417 10C8.85417 9.68167 8.96556 9.41111 9.18834 9.18833C9.41112 8.96556 9.68167 8.85417 10 8.85417C10.3183 8.85417 10.5889 8.96556 10.8117 9.18833C11.0344 9.41111 11.1458 9.68167 11.1458 10C11.1458 10.3183 11.0344 10.5889 10.8117 10.8117C10.5889 11.0344 10.3183 11.1458 10 11.1458ZM9.99542 4.88771C10.1747 4.88771 10.3266 4.82708 10.451 4.70583C10.5755 4.58445 10.6377 4.43403 10.6377 4.25458C10.6377 4.07528 10.5771 3.9234 10.4558 3.79896C10.3344 3.67451 10.184 3.61229 10.0046 3.61229C9.82528 3.61229 9.67341 3.67292 9.54896 3.79417C9.42452 3.91556 9.3623 4.06597 9.3623 4.24542C9.3623 4.42472 9.42292 4.5766 9.54417 4.70104C9.66556 4.82549 9.81598 4.88771 9.99542 4.88771Z" fill="white"/>
</svg>
