<svg width="20" height="20" viewBox="0 0 20 20" fill="none" xmlns="http://www.w3.org/2000/svg">
<path d="M4.75646 17.5833C4.38674 17.5833 4.07098 17.4525 3.80917 17.1908C3.5475 16.929 3.41667 16.6133 3.41667 16.2435V6.75646C3.41667 6.38674 3.5475 6.07098 3.80917 5.80917C4.07098 5.5475 4.38674 5.41667 4.75646 5.41667H6.41667C6.41667 4.42222 6.76577 3.57639 7.46396 2.87917C8.16202 2.18195 9.00896 1.83334 10.0048 1.83334C11.0005 1.83334 11.8458 2.18195 12.5408 2.87917C13.2358 3.57639 13.5833 4.42222 13.5833 5.41667H15.2435C15.6133 5.41667 15.929 5.5475 16.1908 5.80917C16.4525 6.07098 16.5833 6.38674 16.5833 6.75646V16.2435C16.5833 16.6133 16.4525 16.929 16.1908 17.1908C15.929 17.4525 15.6133 17.5833 15.2435 17.5833H4.75646ZM4.75646 16.5H15.2435C15.3077 16.5 15.3665 16.4733 15.4198 16.4198C15.4733 16.3665 15.5 16.3077 15.5 16.2435V6.75646C15.5 6.69229 15.4733 6.63354 15.4198 6.58021C15.3665 6.52674 15.3077 6.5 15.2435 6.5H4.75646C4.6923 6.5 4.63355 6.52674 4.58021 6.58021C4.52674 6.63354 4.50001 6.69229 4.50001 6.75646V16.2435C4.50001 16.3077 4.52674 16.3665 4.58021 16.4198C4.63355 16.4733 4.6923 16.5 4.75646 16.5ZM10.0048 11.5833C11.0005 11.5833 11.8458 11.2347 12.5408 10.5375C13.2358 9.84028 13.5833 8.99445 13.5833 8H12.5C12.5 8.69445 12.2569 9.28472 11.7708 9.77084C11.2847 10.2569 10.6944 10.5 10 10.5C9.30556 10.5 8.71528 10.2569 8.22917 9.77084C7.74306 9.28472 7.50001 8.69445 7.50001 8H6.41667C6.41667 8.99889 6.76577 9.84584 7.46396 10.5408C8.16202 11.2358 9.00896 11.5833 10.0048 11.5833ZM7.50001 5.41667H12.5C12.5 4.72222 12.2569 4.13195 11.7708 3.64584C11.2847 3.15972 10.6944 2.91667 10 2.91667C9.30556 2.91667 8.71528 3.15972 8.22917 3.64584C7.74306 4.13195 7.50001 4.72222 7.50001 5.41667Z" fill="white"/>
</svg>
