<svg width="20" height="20" viewBox="0 0 20 20" fill="none" xmlns="http://www.w3.org/2000/svg">
<path d="M9.9977 16.5912C9.82187 16.5912 9.65034 16.5555 9.48312 16.484C9.3159 16.4124 9.17729 16.312 9.06729 16.1827L3.85249 11.3429C3.36638 10.8985 3.00208 10.3817 2.75958 9.7925C2.51708 9.20319 2.39583 8.5859 2.39583 7.94062C2.39583 6.69479 2.79798 5.62403 3.60229 4.72833C4.40645 3.8325 5.40173 3.38458 6.58812 3.38458C7.18118 3.38458 7.74562 3.50986 8.28145 3.76042C8.81715 4.01097 9.29652 4.35472 9.71958 4.79167L10 5.08812L10.2644 4.80771C10.6842 4.34618 11.1677 3.99361 11.7148 3.75C12.2617 3.50639 12.8277 3.38458 13.4127 3.38458C14.5931 3.38458 15.5868 3.83153 16.3937 4.72542C17.2007 5.61917 17.6042 6.68958 17.6042 7.93667C17.6042 8.57611 17.4877 9.19042 17.2548 9.77958C17.0219 10.3689 16.6667 10.8858 16.1892 11.3302L10.9327 16.2035C10.8006 16.3328 10.6557 16.4298 10.4979 16.4944C10.3403 16.559 10.1735 16.5912 9.9977 16.5912ZM11 7.20833C11.0919 7.20833 11.1777 7.22674 11.2573 7.26354C11.3369 7.30049 11.4033 7.36118 11.4567 7.44562L12.7835 9.45833H16.1892C16.3067 9.22111 16.3913 8.97167 16.4431 8.71C16.4949 8.44833 16.5182 8.18493 16.5129 7.91979C16.5182 6.98924 16.2226 6.17861 15.626 5.48792C15.0296 4.79722 14.2921 4.45187 13.4135 4.45187C12.982 4.45187 12.5649 4.54618 12.1621 4.73479C11.7592 4.9234 11.4096 5.1793 11.1133 5.5025L10.4662 6.1875C10.4089 6.25264 10.3406 6.30042 10.2615 6.33083C10.1823 6.36139 10.0951 6.37667 10 6.37667C9.90486 6.37667 9.82118 6.36007 9.74895 6.32687C9.67687 6.29382 9.61208 6.24736 9.55458 6.1875L8.89583 5.49083C8.59347 5.16153 8.24291 4.90868 7.84416 4.73229C7.44541 4.55604 7.02618 4.46792 6.58645 4.46792C5.70784 4.46792 4.97034 4.80854 4.37395 5.48979C3.77743 6.17104 3.47916 6.98799 3.47916 7.94062C3.47916 8.20632 3.50986 8.46639 3.57124 8.72083C3.63277 8.97528 3.71958 9.22111 3.83166 9.45833H7.5C7.59194 9.45833 7.67638 9.47673 7.75333 9.51354C7.83013 9.55048 7.89611 9.61298 7.95125 9.70104L8.93916 11.181L10.5129 7.50167C10.5717 7.40014 10.641 7.3259 10.721 7.27896C10.801 7.23187 10.894 7.20833 11 7.20833ZM11.0608 8.83979L9.48708 12.4983C9.42833 12.5999 9.36 12.6741 9.28208 12.721C9.20402 12.7681 9.10715 12.7917 8.99145 12.7917C8.90145 12.7917 8.81895 12.7733 8.74395 12.7365C8.66895 12.6995 8.60472 12.6388 8.55124 12.5544L7.21645 10.5417H4.59125L9.74979 15.3569C9.7777 15.3828 9.81597 15.4062 9.86458 15.4271C9.91319 15.4479 9.95833 15.4583 10 15.4583C10.0417 15.4583 10.0868 15.4479 10.1354 15.4271C10.184 15.4062 10.2223 15.3828 10.2502 15.3569L15.3958 10.5417H12.5C12.4081 10.5417 12.3223 10.5253 12.2427 10.4927C12.1631 10.4602 12.0993 10.4017 12.0512 10.3173L11.0608 8.83979Z" fill="white"/>
</svg>
