<svg width="20" height="20" viewBox="0 0 20 20" fill="none" xmlns="http://www.w3.org/2000/svg">
<path d="M7.36709 16.5833C6.28264 16.5833 5.35313 16.196 4.57855 15.4215C3.80396 14.6469 3.41667 13.7174 3.41667 12.6329C3.41667 12.1843 3.48987 11.7495 3.63625 11.3285C3.78264 10.9076 3.99098 10.523 4.26125 10.1748L6.95355 6.76125L5.59771 3.41667H14.4023L13.0256 6.76125L15.7388 10.1748C16.009 10.523 16.2174 10.9076 16.3638 11.3285C16.5101 11.7495 16.5833 12.1843 16.5833 12.6329C16.5833 13.7174 16.1974 14.6469 15.4254 15.4215C14.6536 16.196 13.7228 16.5833 12.6329 16.5833H7.36709ZM10 13.0335C9.55667 13.0335 9.18091 12.8795 8.87271 12.5713C8.56438 12.2631 8.41021 11.8873 8.41021 11.444C8.41021 11.0005 8.56438 10.6247 8.87271 10.3165C9.18091 10.0083 9.55667 9.85417 10 9.85417C10.4433 9.85417 10.8191 10.0083 11.1273 10.3165C11.4356 10.6247 11.5898 11.0005 11.5898 11.444C11.5898 11.8873 11.4356 12.2631 11.1273 12.5713C10.8191 12.8795 10.4433 13.0335 10 13.0335ZM7.95188 6.31251H12.056L12.8333 4.50001H7.16667L7.95188 6.31251ZM7.36709 15.5H12.6329C13.4236 15.5 14.0991 15.2185 14.6594 14.6554C15.2198 14.0924 15.5 13.4182 15.5 12.6329C15.5 12.3028 15.4479 11.9866 15.3438 11.6844C15.2396 11.382 15.0849 11.1005 14.8798 10.8398L12.1698 7.39584H7.83021L5.12813 10.8477C4.92299 11.1084 4.76702 11.3886 4.66021 11.6883C4.55341 11.9879 4.50001 12.3028 4.50001 12.6329C4.50001 13.4182 4.78153 14.0924 5.34459 14.6554C5.90764 15.2185 6.58181 15.5 7.36709 15.5Z" fill="white"/>
</svg>
