<svg width="20" height="20" viewBox="0 0 20 20" fill="none" xmlns="http://www.w3.org/2000/svg">
<path d="M4.27021 16.3108C4.11785 16.3108 3.98882 16.259 3.88313 16.1552C3.7773 16.0513 3.72438 15.9227 3.72438 15.7692V14.5192H3.50001C2.91778 14.5192 2.42501 14.3175 2.02167 13.9142C1.61834 13.511 1.41667 13.0182 1.41667 12.4358V8.93585C1.41667 8.32154 1.62632 7.82078 2.04563 7.43355C2.46507 7.04619 2.94987 6.85251 3.50001 6.85251L4.00001 6.89418V5.51293C4.00001 5.06946 4.15306 4.69473 4.45917 4.38876C4.76528 4.08265 5.14001 3.9296 5.58334 3.9296H14.4167C14.86 3.9296 15.2347 4.08265 15.5408 4.38876C15.847 4.69473 16 5.06946 16 5.51293V6.89418L16.5 6.85251C17.0715 6.85251 17.5617 7.05022 17.9704 7.44564C18.379 7.84092 18.5833 8.33765 18.5833 8.93585V12.4358C18.5833 13.0182 18.3817 13.511 17.9783 13.9142C17.575 14.3175 17.0822 14.5192 16.5 14.5192H16.2756V15.7692C16.2756 15.9227 16.2269 16.0513 16.1294 16.1552C16.0319 16.259 15.9069 16.3108 15.7546 16.3108C15.6024 16.3108 15.4733 16.259 15.3673 16.1552C15.2613 16.0513 15.2083 15.9227 15.2083 15.7692V14.5192H4.80771V15.7692C4.80771 15.9229 4.75619 16.0517 4.65313 16.1554C4.55007 16.259 4.42244 16.3108 4.27021 16.3108ZM3.50001 13.4358H16.5C16.7833 13.4358 17.0208 13.34 17.2125 13.1483C17.4042 12.9567 17.5 12.7192 17.5 12.4358V8.93585C17.5 8.65251 17.4042 8.41501 17.2125 8.22335C17.0208 8.03168 16.7833 7.93585 16.5 7.93585C16.2167 7.93585 15.9792 8.03168 15.7875 8.22335C15.5958 8.41501 15.5 8.65251 15.5 8.93585V11.7275H4.50001V8.93585C4.50001 8.65251 4.40417 8.41501 4.21251 8.22335C4.02084 8.03168 3.78334 7.93585 3.50001 7.93585C3.21667 7.93585 2.97917 8.03168 2.78751 8.22335C2.59584 8.41501 2.50001 8.65251 2.50001 8.93585V12.4358C2.50001 12.7192 2.59584 12.9567 2.78751 13.1483C2.97917 13.34 3.21667 13.4358 3.50001 13.4358ZM5.58334 10.6442H14.4167V8.93585C14.4167 8.73723 14.4514 8.52279 14.5208 8.29251C14.5903 8.06223 14.7222 7.85307 14.9167 7.66501V5.51293C14.9167 5.37126 14.8688 5.25251 14.7729 5.15668C14.6771 5.06085 14.5583 5.01293 14.4167 5.01293H5.58334C5.44167 5.01293 5.32292 5.06085 5.22709 5.15668C5.13126 5.25251 5.08334 5.37126 5.08334 5.51293V7.66501C5.27778 7.85307 5.40973 8.06223 5.47917 8.29251C5.54862 8.52279 5.58334 8.73723 5.58334 8.93585V10.6442Z" fill="white"/>
</svg>
