<svg width="20" height="20" viewBox="0 0 20 20" fill="none" xmlns="http://www.w3.org/2000/svg">
<path d="M8.45188 16.5H11.5321V15.3798L12.181 15.1331C13.2473 14.7463 14.1522 14.1378 14.8958 13.3077C15.6394 12.4776 16.1293 11.5417 16.3654 10.5H3.63459C3.8707 11.5417 4.35924 12.4776 5.10021 13.3077C5.84105 14.1378 6.74195 14.7463 7.80292 15.1331L8.45188 15.3798V16.5ZM7.36855 17.5833V16.1281C6.00424 15.672 4.86056 14.8107 3.93751 13.5442C3.01445 12.2775 2.50751 11.0683 2.41667 9.91666V9.41666H4.41667V3.85416L17.5833 2.41666V3.16832L8.96792 4.11228V6.28041H17.5833V7.02395H8.96792V9.41666H17.5833V9.91666C17.5032 11.0683 16.9997 12.2775 16.0729 13.5442C15.1461 14.8107 13.9936 15.672 12.6154 16.1281V17.5833H7.36855ZM7.06417 6.28041H8.22438V4.19228L7.06417 4.30457V6.28041ZM5.16021 6.28041H6.32063V4.39749L5.16021 4.52561V6.28041ZM7.06417 9.41666H8.22438V7.02395H7.06417V9.41666ZM5.16021 9.41666H6.32063V7.02395H5.16021V9.41666Z" fill="white"/>
</svg>
