<svg width="20" height="20" viewBox="0 0 20 20" fill="none" xmlns="http://www.w3.org/2000/svg">
<path d="M3.75646 16.5833C3.38132 16.5833 3.06424 16.4538 2.80521 16.1948C2.54619 15.9358 2.41667 15.6187 2.41667 15.2436V6.75647C2.41667 6.38133 2.54619 6.06425 2.80521 5.80522C3.06424 5.54619 3.38132 5.41668 3.75646 5.41668H6.41667V4.16876C6.41667 3.79237 6.54619 3.4757 6.80521 3.21876C7.06424 2.96182 7.38132 2.83334 7.75646 2.83334H12.2435C12.6187 2.83334 12.9358 2.96286 13.1948 3.22189C13.4538 3.48091 13.5833 3.798 13.5833 4.17314V5.41668H16.2435C16.6187 5.41668 16.9358 5.54619 17.1948 5.80522C17.4538 6.06425 17.5833 6.38133 17.5833 6.75647V15.2436C17.5833 15.6187 17.4538 15.9358 17.1948 16.1948C16.9358 16.4538 16.6187 16.5833 16.2435 16.5833H3.75646ZM7.50001 5.41668H12.5V4.17314C12.5 4.10897 12.4733 4.05022 12.4198 3.99688C12.3665 3.94341 12.3077 3.91668 12.2435 3.91668H7.75646C7.6923 3.91668 7.63355 3.94341 7.58021 3.99688C7.52674 4.05022 7.50001 4.10897 7.50001 4.17314V5.41668ZM16.5 12.0417H12.0833V13.5833H7.91667V12.0417H3.50001V15.2436C3.50001 15.3077 3.52674 15.3665 3.58021 15.4198C3.63355 15.4733 3.6923 15.5 3.75646 15.5H16.2435C16.3077 15.5 16.3665 15.4733 16.4198 15.4198C16.4733 15.3665 16.5 15.3077 16.5 15.2436V12.0417ZM9.00001 12.5H11V10.5H9.00001V12.5ZM3.50001 10.9583H7.91667V9.41668H12.0833V10.9583H16.5V6.75647C16.5 6.6923 16.4733 6.63355 16.4198 6.58022C16.3665 6.52675 16.3077 6.50001 16.2435 6.50001H3.75646C3.6923 6.50001 3.63355 6.52675 3.58021 6.58022C3.52674 6.63355 3.50001 6.6923 3.50001 6.75647V10.9583Z" fill="white"/>
</svg>
