<svg width="20" height="20" viewBox="0 0 20 20" fill="none" xmlns="http://www.w3.org/2000/svg">
<path d="M13.2456 8.90374C13.4248 8.90374 13.5793 8.84034 13.7092 8.71353C13.8389 8.58659 13.9038 8.43353 13.9038 8.25437C13.9038 8.0752 13.8404 7.92069 13.7135 7.79082C13.5866 7.6611 13.4335 7.59624 13.2544 7.59624C13.0752 7.59624 12.9207 7.65964 12.7908 7.78645C12.6611 7.91339 12.5963 8.06645 12.5963 8.24561C12.5963 8.42478 12.6597 8.57929 12.7865 8.70916C12.9134 8.83888 13.0665 8.90374 13.2456 8.90374ZM7.00001 7.29166H11V6.20832H7.00001V7.29166ZM4.31251 16.5833C3.90014 14.9251 3.48112 13.4169 3.05542 12.0585C2.62959 10.7001 2.41667 9.34721 2.41667 7.99999C2.41667 6.86291 2.81299 5.89812 3.60563 5.10562C4.39813 4.31298 5.36292 3.91666 6.50001 3.91666H10.8542C11.2494 3.45721 11.7174 3.09235 12.2581 2.82207C12.7987 2.5518 13.3793 2.41666 14 2.41666C14.1603 2.41666 14.2976 2.47381 14.4119 2.58811C14.5262 2.70242 14.5833 2.83971 14.5833 2.99999C14.5833 3.08443 14.5721 3.16881 14.5496 3.25312C14.5272 3.33756 14.4936 3.42464 14.4488 3.51436C14.3579 3.70131 14.2785 3.88617 14.2106 4.06895C14.1429 4.25159 14.0897 4.44332 14.0513 4.64416L16.3238 6.91666H17.5833V11.6954L15.4133 12.1714L14.1875 16.5833H10.4167V15.0833H8.08334V16.5833H4.31251ZM5.12501 15.5H7.00001V14H11.5V15.5H13.3542L14.5417 11.2292L16.5 10.7917V7.99999H15.875L13 5.12499C13 4.85818 13.0174 4.60138 13.0521 4.35457C13.0868 4.10777 13.1442 3.86027 13.2244 3.61207C12.8633 3.72318 12.5291 3.89256 12.2219 4.1202C11.9148 4.3477 11.6394 4.64096 11.3958 4.99999H6.50001C5.67139 4.99999 4.96424 5.29284 4.37855 5.87853C3.79285 6.46423 3.50001 7.17138 3.50001 7.99999C3.50001 9.15277 3.68403 10.3437 4.05209 11.5729C4.42014 12.8021 4.77778 14.1111 5.12501 15.5Z" fill="white"/>
</svg>
