<svg width="20" height="20" viewBox="0 0 20 20" fill="none" xmlns="http://www.w3.org/2000/svg">
<path d="M15.8894 16.6476L10.9263 11.6842C10.5096 12.0005 10.0527 12.2454 9.55563 12.419C9.05855 12.5926 8.54556 12.6794 8.01667 12.6794C6.71695 12.6794 5.61202 12.2245 4.70188 11.3146C3.79174 10.4048 3.33667 9.30033 3.33667 8.0013C3.33667 6.70241 3.7916 5.59755 4.70146 4.68672C5.61132 3.77603 6.71577 3.32068 8.01479 3.32068C9.31368 3.32068 10.4185 3.77575 11.3294 4.68589C12.2401 5.59603 12.6954 6.70096 12.6954 8.00068C12.6954 8.54554 12.606 9.06651 12.4271 9.56359C12.2481 10.0608 12.0058 10.5097 11.7002 10.9103L16.6633 15.8734L15.8894 16.6476ZM8.01604 11.5963C9.02035 11.5963 9.87077 11.248 10.5673 10.5513C11.264 9.85478 11.6123 9.00436 11.6123 8.00005C11.6123 6.99575 11.264 6.14533 10.5673 5.4488C9.87077 4.75214 9.02035 4.4038 8.01604 4.4038C7.01174 4.4038 6.16132 4.75214 5.46479 5.4488C4.76813 6.14533 4.41979 6.99575 4.41979 8.00005C4.41979 9.00436 4.76813 9.85478 5.46479 10.5513C6.16132 11.248 7.01174 11.5963 8.01604 11.5963Z" fill="white"/>
</svg>
