<svg width="20" height="20" viewBox="0 0 20 20" fill="none" xmlns="http://www.w3.org/2000/svg">
<path d="M5.93271 16.5833C5.85007 16.5833 5.78084 16.5553 5.725 16.4994C5.66903 16.4435 5.64105 16.3743 5.64105 16.2917V14.585C5.31091 14.4012 5.02431 14.1042 4.78126 13.6939C4.5382 13.2837 4.41667 12.8323 4.41667 12.3398V4.99999C4.41667 4.14416 4.78605 3.49964 5.5248 3.06645C6.26341 2.63325 7.75507 2.41666 9.9998 2.41666C12.2254 2.41666 13.7123 2.63457 14.4606 3.07041C15.2091 3.5061 15.5833 4.1493 15.5833 4.99999V12.3398C15.5833 12.8323 15.4618 13.2837 15.2188 13.6939C14.9757 14.1042 14.6891 14.4012 14.359 14.585V16.2917C14.359 16.3743 14.331 16.4435 14.275 16.4994C14.2192 16.5553 14.1499 16.5833 14.0673 16.5833H13.3877C13.3052 16.5833 13.236 16.5553 13.18 16.4994C13.1242 16.4435 13.0963 16.3743 13.0963 16.2917V15.0833H6.90376V16.2917C6.90376 16.3743 6.87584 16.4435 6.82 16.4994C6.76403 16.5553 6.6948 16.5833 6.6123 16.5833H5.93271ZM5.50001 8.91666H14.5V5.8077H5.50001V8.91666ZM7.50188 12.8398C7.73563 12.8398 7.93369 12.7579 8.09605 12.5942C8.25855 12.4305 8.3398 12.2319 8.3398 11.9981C8.3398 11.7644 8.25792 11.5663 8.09417 11.4039C7.93056 11.2414 7.73188 11.1602 7.49813 11.1602C7.26438 11.1602 7.06632 11.2421 6.90396 11.4058C6.74146 11.5694 6.66021 11.7681 6.66021 12.0019C6.66021 12.2356 6.74209 12.4337 6.90584 12.596C7.06945 12.7585 7.26813 12.8398 7.50188 12.8398ZM12.5019 12.8398C12.7356 12.8398 12.9337 12.7579 13.096 12.5942C13.2585 12.4305 13.3398 12.2319 13.3398 11.9981C13.3398 11.7644 13.2579 11.5663 13.0942 11.4039C12.9306 11.2414 12.7319 11.1602 12.4981 11.1602C12.2644 11.1602 12.0663 11.2421 11.904 11.4058C11.7415 11.5694 11.6602 11.7681 11.6602 12.0019C11.6602 12.2356 11.7421 12.4337 11.9058 12.596C12.0694 12.7585 12.2681 12.8398 12.5019 12.8398ZM5.46 4.72437H14.529C14.2831 4.22548 13.8261 3.89666 13.1579 3.73791C12.4896 3.5793 11.4316 3.49999 9.98396 3.49999C8.61757 3.49999 7.5898 3.58013 6.90063 3.74041C6.21146 3.90068 5.73125 4.22867 5.46 4.72437ZM7.00126 14H13.0058C13.4186 14 13.7708 13.8531 14.0625 13.5594C14.3542 13.2656 14.5 12.9125 14.5 12.5V9.99999H5.50001V12.5C5.50001 12.9167 5.64702 13.2708 5.94105 13.5625C6.23494 13.8542 6.58834 14 7.00126 14Z" fill="white"/>
</svg>
