<svg width="20" height="20" viewBox="0 0 20 20" fill="none" xmlns="http://www.w3.org/2000/svg">
<path d="M9.40376 15.5H10.5963V14.2787L13.5 11.375V7.75645C13.5 7.69228 13.4733 7.63353 13.4198 7.5802C13.3665 7.52673 13.3077 7.49999 13.2435 7.49999H6.75646C6.6923 7.49999 6.63355 7.52673 6.58021 7.5802C6.52674 7.63353 6.50001 7.69228 6.50001 7.75645V11.375L9.40376 14.2787V15.5ZM8.32063 16.5833V14.7275L5.41667 11.8237V7.75645C5.41667 7.38673 5.5475 7.07096 5.80917 6.80916C6.07098 6.54749 6.38674 6.41666 6.75646 6.41666H7.97751L7.56105 7.12499V3.41666H8.64417V6.41666H11.3558V3.41666H12.439V7.12499L12.0225 6.41666H13.2435C13.6133 6.41666 13.929 6.54749 14.1908 6.80916C14.4525 7.07096 14.5833 7.38673 14.5833 7.75645V11.8237L11.6794 14.7275V16.5833H8.32063Z" fill="white"/>
</svg>
